<svg width="339" height="98" viewBox="0 0 339 98" fill="none" xmlns="http://www.w3.org/2000/svg">
    <path fill-rule="evenodd" clip-rule="evenodd" d="M41.25 13.0528C58.5 -1.20678 276 -5.75335 298.75 13.0528C305.149 18.3423 304.834 20.3075 304.581 21.8852C304.548 22.0947 304.516 22.2973 304.5 22.5C304.474 22.8448 304.448 23.1936 304.421 23.5463C304.371 24.2299 304.32 24.928 304.269 25.6391C303.133 41.3434 301.536 63.4314 287.5 77C285.5 68.5 54.5 68.5 52.5 77C38.4635 63.4314 36.8666 41.3433 35.7312 25.639C35.6798 24.9278 35.6293 24.2297 35.5786 23.5461C35.5525 23.1935 35.5264 22.8447 35.5 22.5C35.4845 22.2973 35.4521 22.0947 35.4185 21.8852C35.1659 20.3075 34.8513 18.3423 41.25 13.0528ZM28.0363 18C27.7795 15.3672 26.43 13.0528 20 13.0528C5.08833 13.0528 1 25.6391 1 25.6391V95.6391C1 95.6391 5.08833 89 20 89C24.7035 89 26.0594 89.4974 26.2082 90.1785L26.2 90.5C26.2255 90.3893 26.2307 90.2818 26.2082 90.1785L28.0363 18ZM313.792 90.1785L311.964 18C312.22 15.3672 313.57 13.0528 320 13.0528C334.912 13.0528 338 25.6391 338 25.6391V95.6391C338 95.6391 334.912 89 320 89C315.297 89 313.941 89.4974 313.792 90.1785ZM313.792 90.1785L313.8 90.5C313.774 90.3893 313.769 90.2818 313.792 90.1785Z" fill="white"/>
    <path d="M287.5 77C282.5 81.8333 299.48 94 308 94C318.075 94 314.139 91.9728 313.8 90.5C313.774 90.3893 313.769 90.2818 313.792 90.1785L311.964 18C311.625 21.4729 313.188 25.5 307.5 25.5C304.927 25.5 304.451 24.4676 304.421 23.5463C304.371 24.2299 304.32 24.928 304.269 25.6391C303.133 41.3434 301.536 63.4314 287.5 77Z" fill="#D9D9D9"/>
    <path d="M32 94C40.5204 94 57.5 81.8333 52.5 77C38.4635 63.4314 36.8666 41.3433 35.7312 25.639C35.6798 24.9278 35.6293 24.2297 35.5786 23.5461C35.5488 24.4674 35.0728 25.5 32.5 25.5C27.9978 25.5 28.0384 22.977 28.0831 20.2028C28.0948 19.4721 28.1069 18.724 28.0363 18L26.2082 90.1785C26.2307 90.2818 26.2255 90.3893 26.2 90.5C26.1311 90.7991 25.9138 91.1211 25.6956 91.4444C24.8397 92.7126 23.971 94 32 94Z" fill="#D9D9D9"/>
    <path d="M287.5 77C282.5 81.8333 299.48 94 308 94C318.075 94 314.139 91.9728 313.8 90.5C313.774 90.3893 313.769 90.2818 313.792 90.1785L311.964 18C311.625 21.4729 313.188 25.5 307.5 25.5C304.927 25.5 304.451 24.4676 304.421 23.5463C304.371 24.2299 304.32 24.928 304.269 25.6391C303.133 41.3434 301.536 63.4314 287.5 77Z" fill="#D9D9D9"/>
    <path d="M287.5 77C282.5 81.8333 299.48 94 308 94C318.075 94 314.139 91.9728 313.8 90.5C313.774 90.3893 313.769 90.2818 313.792 90.1785L311.964 18C311.625 21.4729 313.188 25.5 307.5 25.5C304.927 25.5 304.451 24.4676 304.421 23.5463C304.371 24.2299 304.32 24.928 304.269 25.6391C303.133 41.3434 301.536 63.4314 287.5 77Z" fill="url(#paint0_linear_33_26)"/>
    <path d="M32 94C40.5204 94 57.5 81.8333 52.5 77C38.4635 63.4314 36.8666 41.3433 35.7312 25.639C35.6798 24.9278 35.6293 24.2297 35.5786 23.5461C35.5488 24.4674 35.0728 25.5 32.5 25.5C27.9978 25.5 28.0384 22.977 28.0831 20.2028C28.0948 19.4721 28.1069 18.724 28.0363 18L26.2082 90.1785C26.2307 90.2818 26.2255 90.3893 26.2 90.5C26.1311 90.7991 25.9138 91.1211 25.6956 91.4444C24.8397 92.7126 23.971 94 32 94Z" fill="url(#paint1_linear_33_26)"/>
    <path d="M41.25 13.0528L41.5686 13.4382L41.5686 13.4382L41.25 13.0528ZM298.75 13.0528L298.431 13.4382L298.431 13.4382L298.75 13.0528ZM1 25.6391L0.524458 25.4847L0.5 25.56V25.6391H1ZM1 95.6391H0.5V97.4046L1.42575 95.9013L1 95.6391ZM35.5 22.5L35.9985 22.4619L35.9985 22.4619L35.5 22.5ZM52.5 77L52.1525 77.3595L52.1525 77.3595L52.5 77ZM304.5 22.5L304.001 22.4619L304.001 22.4619L304.5 22.5ZM26.2 90.5L26.6873 90.6123L26.6873 90.6123L26.2 90.5ZM28.0363 18L28.5339 17.9515L28.5339 17.9515L28.0363 18ZM338 25.6391H338.5V25.5787L338.486 25.52L338 25.6391ZM338 95.6391L337.547 95.85L338.5 95.6391H338ZM311.964 18L311.466 17.9515L311.964 18ZM35.4185 21.8852L35.9122 21.8062L35.9122 21.8062L35.4185 21.8852ZM28.0831 20.2028L28.583 20.2108L28.583 20.2108L28.0831 20.2028ZM25.6956 91.4444L26.1101 91.7241L26.1101 91.7241L25.6956 91.4444ZM304.269 25.6391L303.77 25.6031L303.77 25.6031L304.269 25.6391ZM304.581 21.8852L305.075 21.9643L305.075 21.9643L304.581 21.8852ZM35.7312 25.639L35.2325 25.6751L35.2325 25.6751L35.7312 25.639ZM41.5686 13.4382C42.5691 12.6111 44.3521 11.781 46.8865 10.9727C49.4062 10.1691 52.6166 9.40275 56.4273 8.67862C64.0476 7.23058 74.0299 5.95846 85.6084 4.89032C108.763 2.75425 138.265 1.4372 167.942 1.15314C197.621 0.869063 227.463 1.61813 251.302 3.61197C263.223 4.60899 273.631 5.9164 281.762 7.55864C285.828 8.37979 289.315 9.28281 292.133 10.2689C294.959 11.2578 297.077 12.3184 298.431 13.4382L299.069 12.6675C297.579 11.4365 295.332 10.3287 292.464 9.32507C289.588 8.31865 286.053 7.40491 281.96 6.57843C273.775 4.92539 263.324 3.61401 251.385 2.61545C227.505 0.618156 197.629 -0.131068 167.933 0.153181C138.235 0.437435 108.706 1.75532 85.5166 3.89455C73.9232 4.96406 63.9055 6.23969 56.2406 7.6962C52.4088 8.42436 49.1553 9.1995 46.5827 10.0199C44.0249 10.8357 42.0871 11.7121 40.9314 12.6675L41.5686 13.4382ZM20 12.5528C12.3831 12.5528 7.50524 15.7747 4.53965 19.008C3.06099 20.6201 2.0603 22.2315 1.4286 23.441C1.11254 24.0462 0.88818 24.552 0.742079 24.9088C0.669011 25.0873 0.615462 25.2286 0.57976 25.3266C0.561908 25.3756 0.548513 25.4138 0.539366 25.4404C0.534793 25.4537 0.531281 25.4641 0.528806 25.4715C0.527568 25.4752 0.526589 25.4782 0.525865 25.4804C0.525503 25.4815 0.525206 25.4824 0.524971 25.4831C0.524854 25.4834 0.524726 25.4838 0.524667 25.484C0.524555 25.4844 0.524458 25.4847 1 25.6391C1.47554 25.7936 1.47548 25.7938 1.47543 25.7939C1.47543 25.7939 1.4754 25.794 1.4754 25.794C1.47542 25.794 1.4755 25.7937 1.47564 25.7933C1.47592 25.7924 1.47645 25.7908 1.47723 25.7885C1.4788 25.7838 1.48138 25.7762 1.485 25.7656C1.49223 25.7446 1.50362 25.7121 1.51935 25.6689C1.55082 25.5826 1.59966 25.4535 1.66751 25.2878C1.80324 24.9563 2.01478 24.4788 2.31499 23.904C2.91584 22.7536 3.86922 21.2184 5.2766 19.6839C8.0831 16.6241 12.7052 13.5528 20 13.5528V12.5528ZM0.5 25.6391V95.6391H1.5V25.6391H0.5ZM1 95.6391C1.42575 95.9013 1.42556 95.9016 1.42538 95.9019C1.42534 95.9019 1.42518 95.9022 1.4251 95.9023C1.42495 95.9026 1.42485 95.9027 1.42482 95.9028C1.42476 95.9029 1.42494 95.9026 1.42537 95.9019C1.42624 95.9005 1.42812 95.8976 1.43102 95.8931C1.43682 95.8842 1.44674 95.8693 1.46097 95.8487C1.48943 95.8075 1.53516 95.7437 1.59977 95.6604C1.72898 95.4939 1.93375 95.2498 2.2271 94.9535C2.8135 94.3613 3.7552 93.5594 5.15739 92.753C7.95883 91.1419 12.621 89.5 20 89.5V88.5C12.4674 88.5 7.6295 90.1777 4.65885 91.8861C3.17501 92.7395 2.16265 93.5974 1.51649 94.2499C1.19356 94.5761 0.962438 94.8506 0.809822 95.0472C0.733518 95.1455 0.676847 95.2244 0.638142 95.2804C0.618789 95.3084 0.603927 95.3307 0.593348 95.347C0.588059 95.3551 0.58384 95.3617 0.580665 95.3667C0.579078 95.3692 0.577752 95.3713 0.576683 95.373C0.576149 95.3739 0.57568 95.3746 0.575274 95.3753C0.575071 95.3756 0.574814 95.376 0.574713 95.3762C0.574473 95.3766 0.574249 95.3769 1 95.6391ZM32 94.5C34.2319 94.5 36.9657 93.7083 39.7054 92.4796C42.4545 91.2468 45.2538 89.5541 47.6272 87.7071C49.9929 85.8661 51.9717 83.8438 53.0404 81.9401C53.5755 80.9869 53.9014 80.03 53.9042 79.1197C53.907 78.1911 53.5723 77.3411 52.8475 76.6405L52.1525 77.3595C52.6777 77.8672 52.9062 78.4547 52.9042 79.1166C52.9021 79.7968 52.6552 80.5833 52.1684 81.4506C51.1934 83.1874 49.3323 85.113 47.0131 86.9179C44.7015 88.7167 41.9708 90.3678 39.2962 91.5672C36.6121 92.7709 34.0283 93.5 32 93.5V94.5ZM52.9867 77.1145C52.987 77.1135 52.9994 77.0658 53.0963 76.9775C53.1921 76.8903 53.3443 76.7876 53.5688 76.6748C54.018 76.4492 54.6839 76.219 55.5717 75.99C57.3419 75.5334 59.9012 75.1049 63.1506 74.7072C69.6439 73.9126 78.8247 73.2492 89.8054 72.7182C111.763 71.6562 140.88 71.125 170 71.125C199.12 71.125 228.237 71.6562 250.195 72.7182C261.175 73.2492 270.356 73.9126 276.849 74.7072C280.099 75.1049 282.658 75.5334 284.428 75.99C285.316 76.219 285.982 76.4492 286.431 76.6748C286.656 76.7876 286.808 76.8903 286.904 76.9775C287.001 77.0658 287.013 77.1135 287.013 77.1145L287.987 76.8855C287.924 76.6209 287.763 76.4071 287.577 76.2381C287.39 76.0679 287.151 75.9175 286.88 75.7812C286.338 75.5088 285.593 75.2576 284.678 75.0217C282.844 74.5486 280.233 74.1139 276.971 73.7146C270.441 72.9155 261.231 72.2508 250.243 71.7193C228.263 70.6563 199.13 70.125 170 70.125C140.87 70.125 111.737 70.6563 89.7571 71.7193C78.7691 72.2508 69.5592 72.9155 63.0291 73.7146C59.7668 74.1139 57.1561 74.5486 55.3219 75.0217C54.4074 75.2576 53.6624 75.5088 53.12 75.7812C52.8487 75.9175 52.61 76.0679 52.4231 76.2381C52.2374 76.4071 52.0755 76.6209 52.0133 76.8855L52.9867 77.1145ZM308 93.5C305.972 93.5 303.388 92.7709 300.704 91.5672C298.029 90.3678 295.298 88.7167 292.987 86.9179C290.668 85.113 288.807 83.1874 287.832 81.4506C287.345 80.5833 287.098 79.7968 287.096 79.1166C287.094 78.4547 287.322 77.8672 287.848 77.3595L287.152 76.6405C286.428 77.3411 286.093 78.1911 286.096 79.1197C286.099 80.03 286.425 80.9869 286.96 81.9401C288.028 83.8438 290.007 85.8661 292.373 87.7071C294.746 89.5541 297.545 91.2468 300.295 92.4796C303.034 93.7083 305.768 94.5 308 94.5V93.5ZM28.5339 17.9515C28.3986 16.5641 27.9645 15.1691 26.6391 14.1436C25.3369 13.1362 23.2587 12.5528 20 12.5528V13.5528C23.1713 13.5528 24.9828 14.1266 26.0271 14.9346C27.0481 15.7245 27.4172 16.8031 27.5386 18.0485L28.5339 17.9515ZM320 13.5528C327.292 13.5528 331.657 16.6209 334.209 19.6671C335.49 21.1966 336.319 22.7273 336.827 23.875C337.081 24.4483 337.254 24.9245 337.363 25.255C337.418 25.4202 337.456 25.5488 337.481 25.6348C337.493 25.6777 337.502 25.71 337.507 25.7309C337.51 25.7413 337.512 25.7488 337.513 25.7534C337.514 25.7557 337.514 25.7573 337.514 25.7581C337.514 25.7585 337.515 25.7587 337.515 25.7588C337.515 25.7588 337.514 25.7587 337.514 25.7587C337.514 25.7585 337.514 25.7583 338 25.6391C338.486 25.52 338.486 25.5197 338.485 25.5193C338.485 25.5191 338.485 25.5187 338.485 25.5183C338.485 25.5176 338.485 25.5167 338.484 25.5155C338.484 25.5133 338.483 25.5103 338.482 25.5066C338.48 25.4991 338.478 25.4886 338.474 25.4752C338.467 25.4484 338.457 25.41 338.443 25.3608C338.415 25.2624 338.372 25.1206 338.313 24.9416C338.195 24.5838 338.01 24.0767 337.742 23.4701C337.205 22.2578 336.33 20.6419 334.975 19.0249C332.255 15.7779 327.62 12.5528 320 12.5528V13.5528ZM337.5 25.6391V95.6391H338.5V25.6391H337.5ZM338 95.6391C338.453 95.4282 338.453 95.4278 338.453 95.4273C338.453 95.4271 338.453 95.4266 338.452 95.4263C338.452 95.4255 338.452 95.4247 338.451 95.4237C338.45 95.4218 338.449 95.4195 338.448 95.4168C338.445 95.4114 338.442 95.4045 338.438 95.3959C338.429 95.3789 338.417 95.3558 338.402 95.327C338.37 95.2693 338.325 95.1887 338.262 95.0886C338.137 94.8885 337.944 94.6102 337.667 94.2803C337.113 93.6199 336.222 92.7551 334.858 91.8964C332.128 90.1773 327.531 88.5 320 88.5V89.5C327.38 89.5 331.784 91.1422 334.325 92.7427C335.598 93.5437 336.411 94.3388 336.902 94.9232C337.147 95.2157 337.312 95.4561 337.414 95.619C337.465 95.7005 337.5 95.7626 337.522 95.8021C337.532 95.8219 337.54 95.836 337.544 95.8442C337.546 95.8482 337.547 95.8508 337.547 95.8517C337.548 95.8522 337.548 95.8523 337.548 95.8521C337.548 95.8519 337.547 95.8517 337.547 95.8513C337.547 95.8511 337.547 95.8508 337.547 95.8507C337.547 95.8504 337.547 95.85 338 95.6391ZM313.313 90.6123C313.374 90.8774 313.507 91.1262 313.635 91.3346C313.758 91.5353 313.923 91.7697 314.035 91.9415C314.162 92.1352 314.252 92.2928 314.301 92.4271C314.35 92.5584 314.34 92.6177 314.332 92.6425C314.325 92.663 314.292 92.7403 314.106 92.8459C313.915 92.9541 313.601 93.0689 313.104 93.1703C312.113 93.373 310.511 93.5 308 93.5V94.5C310.527 94.5 312.211 94.3736 313.305 94.1501C313.851 94.0385 314.279 93.8971 314.599 93.7159C314.923 93.5321 315.17 93.287 315.279 92.9621C315.387 92.6414 315.332 92.3322 315.24 92.0821C315.149 91.8351 315.005 91.5983 314.872 91.3949C314.725 91.1696 314.605 91.0039 314.488 90.8118C314.375 90.6275 314.311 90.4907 314.287 90.3877L313.313 90.6123ZM307.5 26C308.972 26 310.051 25.7409 310.824 25.2347C311.612 24.7177 312.019 23.9839 312.223 23.1744C312.422 22.3835 312.433 21.4944 312.423 20.6312C312.413 19.7457 312.38 18.8817 312.461 18.0485L311.466 17.9515C311.378 18.8547 311.414 19.7965 311.423 20.6428C311.433 21.5114 311.417 22.2803 311.253 22.9303C311.094 23.5617 310.804 24.0517 310.275 24.3984C309.73 24.7557 308.872 25 307.5 25V26ZM312.461 18.0485C312.583 16.8031 312.952 15.7245 313.973 14.9346C315.017 14.1266 316.829 13.5528 320 13.5528V12.5528C316.741 12.5528 314.663 13.1362 313.361 14.1436C312.035 15.1691 311.601 16.5641 311.466 17.9515L312.461 18.0485ZM304.001 22.4619C303.975 22.8072 303.949 23.1564 303.923 23.5094L304.92 23.5832C304.946 23.2308 304.972 22.8824 304.999 22.5381L304.001 22.4619ZM303.922 23.5625C303.939 24.1037 304.093 24.7537 304.686 25.2515C305.26 25.7338 306.161 26 307.5 26V25C306.266 25 305.643 24.75 305.329 24.4858C305.033 24.2371 304.933 23.9102 304.921 23.5301L303.922 23.5625ZM320 88.5C317.641 88.5 316.081 88.6239 315.08 88.8457C314.58 88.9564 314.185 89.0986 313.893 89.2864C313.59 89.4808 313.376 89.7405 313.303 90.0718L314.28 90.2852C314.282 90.2759 314.293 90.2181 314.434 90.1276C314.585 90.0306 314.85 89.9208 315.296 89.822C316.186 89.6248 317.656 89.5 320 89.5V88.5ZM313.292 90.1911L313.3 90.5126L314.3 90.4874L314.292 90.1659L313.292 90.1911ZM26.6999 90.5127L26.708 90.1912L25.7083 90.1659L25.7002 90.4873L26.6999 90.5127ZM26.6967 90.0718C26.6243 89.7405 26.4096 89.4808 26.1072 89.2864C25.815 89.0986 25.4198 88.9564 24.9203 88.8457C23.9192 88.6239 22.3594 88.5 20 88.5V89.5C22.3441 89.5 23.8139 89.6248 24.7039 89.822C25.1499 89.9208 25.4155 90.0306 25.5664 90.1276C25.7071 90.2181 25.7177 90.276 25.7197 90.2852L26.6967 90.0718ZM32.5 26C33.8389 26 34.7404 25.7337 35.3146 25.2514C35.9072 24.7535 36.0609 24.1035 36.0784 23.5623L35.0789 23.5299C35.0666 23.91 34.9674 24.237 34.6713 24.4857C34.3568 24.75 33.7339 25 32.5 25V26ZM36.0773 23.5092C36.0511 23.1562 36.0249 22.8071 35.9985 22.4619L35.0015 22.5381C35.0278 22.8824 35.0539 23.2307 35.08 23.583L36.0773 23.5092ZM40.9314 12.6675C37.7168 15.3248 36.1316 17.1912 35.3948 18.6334C35.0217 19.3636 34.8647 19.9873 34.8246 20.5477C34.785 21.1011 34.8621 21.5725 34.9248 21.9643L35.9122 21.8062C35.8486 21.4091 35.7917 21.0432 35.822 20.6191C35.8519 20.202 35.9687 19.708 36.2853 19.0884C36.9276 17.8313 38.3845 16.0703 41.5686 13.4382L40.9314 12.6675ZM34.9248 21.9643C34.9589 22.1775 34.9878 22.3595 35.0015 22.5381L35.9985 22.4619C35.9812 22.2351 35.9452 22.0119 35.9122 21.8062L34.9248 21.9643ZM32.5 25C30.3358 25 29.4434 24.3992 29.0228 23.6475C28.7966 23.2434 28.6759 22.7449 28.619 22.153C28.5619 21.5594 28.5717 20.9108 28.583 20.2108L27.5831 20.1947C27.5721 20.8819 27.5601 21.5889 27.6235 22.2487C27.6871 22.9101 27.8292 23.5625 28.1501 24.1359C28.8236 25.3392 30.162 26 32.5 26V25ZM28.583 20.2108C28.5947 19.4853 28.6077 18.7086 28.5339 17.9515L27.5386 18.0485C27.606 18.7395 27.595 19.4589 27.5831 20.1947L28.583 20.2108ZM25.7128 90.3877C25.6693 90.5766 25.5177 90.8142 25.2812 91.1647L26.1101 91.7241C26.3098 91.4281 26.5929 91.0217 26.6873 90.6123L25.7128 90.3877ZM25.2812 91.1647C25.0837 91.4574 24.8085 91.8538 24.7061 92.255C24.6506 92.4723 24.6359 92.722 24.7257 92.9766C24.816 93.2327 24.9932 93.4405 25.2273 93.606C25.6717 93.9202 26.3929 94.1322 27.44 94.2745C28.5064 94.4193 29.9829 94.5 32 94.5V93.5C30.0026 93.5 28.5768 93.4197 27.5746 93.2836C26.5532 93.1448 26.0397 92.9557 25.8046 92.7895C25.6991 92.7149 25.6753 92.6627 25.6688 92.644C25.6617 92.624 25.6541 92.5842 25.675 92.5024C25.7253 92.3055 25.8797 92.0655 26.1101 91.7241L25.2812 91.1647ZM287.848 77.3595C294.958 70.4865 298.899 61.4734 301.207 52.2417C303.515 43.0122 304.2 33.5218 304.768 25.6752L303.77 25.6031C303.202 33.4607 302.521 42.8665 300.237 51.9992C297.954 61.1297 294.079 69.945 287.152 76.6405L287.848 77.3595ZM304.768 25.6752C304.819 24.9639 304.869 24.2663 304.92 23.5832L303.923 23.5094C303.872 24.1935 303.822 24.892 303.77 25.6031L304.768 25.6752ZM304.999 22.5381C305.012 22.3595 305.041 22.1775 305.075 21.9643L304.088 21.8062C304.055 22.0119 304.019 22.2351 304.001 22.4619L304.999 22.5381ZM305.075 21.9643C305.138 21.5725 305.215 21.1011 305.175 20.5477C305.135 19.9873 304.978 19.3636 304.605 18.6334C303.868 17.1912 302.283 15.3248 299.069 12.6674L298.431 13.4382C301.615 16.0703 303.072 17.8313 303.715 19.0884C304.031 19.708 304.148 20.202 304.178 20.619C304.208 21.0431 304.151 21.409 304.088 21.8062L305.075 21.9643ZM311.464 18.0127L313.292 90.1912L314.292 90.1659L312.464 17.9873L311.464 18.0127ZM313.303 90.0719C313.262 90.2632 313.275 90.4473 313.313 90.6123L314.287 90.3877C314.274 90.3314 314.277 90.3004 314.28 90.2852L313.303 90.0719ZM35.0014 22.5376C35.0274 22.883 35.0909 23.1589 35.0789 23.5299L36.0784 23.5623C36.0924 23.1306 36.0124 22.6461 35.9986 22.4624L35.0014 22.5376ZM26.708 90.1912L28.5361 18.0127L27.5364 17.9873L25.7083 90.1659L26.708 90.1912ZM25.7197 90.2852C25.723 90.3004 25.7258 90.3312 25.7128 90.3877L26.6873 90.6123C26.7252 90.4475 26.7385 90.2633 26.6967 90.0718L25.7197 90.2852ZM304.001 22.4624C303.988 22.6462 303.908 23.1307 303.922 23.5625L304.921 23.5301C304.909 23.1591 304.973 22.883 304.999 22.5376L304.001 22.4624ZM52.8475 76.6405C45.9211 69.9449 42.0458 61.1297 39.7628 51.9991C37.4791 42.8664 36.798 33.4606 36.2299 25.603L35.2325 25.6751C35.7998 33.5217 36.4848 43.0121 38.7926 52.2417C41.101 61.4734 45.0425 70.4865 52.1525 77.3595L52.8475 76.6405ZM36.2299 25.603C36.1785 24.8919 36.128 24.1933 36.0773 23.5092L35.08 23.583C35.1306 24.2661 35.1811 24.9638 35.2325 25.6751L36.2299 25.603Z" fill="white"/>
    <defs>
        <linearGradient id="paint0_linear_33_26" x1="169.5" y1="0.595093" x2="169.5" y2="95.6391" gradientUnits="userSpaceOnUse">
            <stop stop-color="#CDCDCD"/>
            <stop offset="1" stop-color="#CDCDCD" stop-opacity="0"/>
        </linearGradient>
        <linearGradient id="paint1_linear_33_26" x1="39.2828" y1="18" x2="39.2828" y2="94" gradientUnits="userSpaceOnUse">
            <stop stop-color="#CDCDCD"/>
            <stop offset="1" stop-color="#CDCDCD" stop-opacity="0"/>
        </linearGradient>
    </defs>
</svg>
