<svg width="338" height="103" viewBox="0 0 338 103" fill="none" xmlns="http://www.w3.org/2000/svg">
    <path fill-rule="evenodd" clip-rule="evenodd" d="M40.25 13.0528C57.5 -1.20678 275 -5.75335 297.75 13.0528C304.149 18.3423 303.834 20.3075 303.581 21.8852C303.548 22.0947 303.516 22.2973 303.5 22.5C303.474 22.8448 303.447 23.1936 303.421 23.5463C303.371 24.2299 303.32 24.928 303.269 25.6391C302.133 41.3434 300.536 63.4314 286.5 77C284.5 68.5 53.5 68.5 51.5 77C37.4635 63.4314 35.8666 41.3433 34.7312 25.639C34.6798 24.9278 34.6293 24.2297 34.5786 23.5461C34.5525 23.1935 34.5264 22.8447 34.5 22.5C34.4845 22.2973 34.4521 22.0947 34.4185 21.8852C34.1659 20.3075 33.8513 18.3423 40.25 13.0528ZM27.0363 18C26.7795 15.3672 25.43 13.0528 19 13.0528C4.08833 13.0528 0.500015 33 0.500015 33V103C0.500015 103 4.08833 89 19 89C23.7035 89 25.0594 89.4974 25.2082 90.1785L25.2 90.5C25.2255 90.3893 25.2307 90.2818 25.2082 90.1785L27.0363 18ZM312.792 90.1785L310.964 18C311.22 15.3672 312.57 13.0528 319 13.0528C333.912 13.0528 337.5 33 337.5 33V103C337.5 103 333.912 89 319 89C314.297 89 312.941 89.4974 312.792 90.1785ZM312.792 90.1785L312.8 90.5C312.774 90.3893 312.769 90.2818 312.792 90.1785Z" fill="#D9D9D9"/>
    <path d="M286.5 77C281.5 81.8333 298.48 94 307 94C317.075 94 313.139 91.9728 312.8 90.5C312.774 90.3893 312.769 90.2818 312.792 90.1785L310.964 18C310.625 21.4729 312.188 25.5 306.5 25.5C303.927 25.5 303.451 24.4676 303.421 23.5463C303.371 24.2299 303.32 24.928 303.269 25.6391C302.133 41.3434 300.536 63.4314 286.5 77Z" fill="#D9D9D9"/>
    <path d="M31 94C39.5204 94 56.5 81.8333 51.5 77C37.4635 63.4314 35.8666 41.3433 34.7312 25.639C34.6798 24.9278 34.6293 24.2297 34.5786 23.5461C34.5488 24.4674 34.0728 25.5 31.5 25.5C26.9978 25.5 27.0384 22.977 27.0831 20.2028C27.0948 19.4721 27.1069 18.724 27.0363 18L25.2082 90.1785C25.2307 90.2818 25.2255 90.3893 25.2 90.5C25.1311 90.7991 24.9138 91.1211 24.6956 91.4444C23.8397 92.7126 22.971 94 31 94Z" fill="#D9D9D9"/>
    <path d="M286.5 77C281.5 81.8333 298.48 94 307 94C317.075 94 313.139 91.9728 312.8 90.5C312.774 90.3893 312.769 90.2818 312.792 90.1785L310.964 18C310.625 21.4729 312.188 25.5 306.5 25.5C303.927 25.5 303.451 24.4676 303.421 23.5463C303.371 24.2299 303.32 24.928 303.269 25.6391C302.133 41.3434 300.536 63.4314 286.5 77Z" fill="#D9D9D9"/>
    <path d="M286.5 77C281.5 81.8333 298.48 94 307 94C317.075 94 313.139 91.9728 312.8 90.5C312.774 90.3893 312.769 90.2818 312.792 90.1785L310.964 18C310.625 21.4729 312.188 25.5 306.5 25.5C303.927 25.5 303.451 24.4676 303.421 23.5463C303.371 24.2299 303.32 24.928 303.269 25.6391C302.133 41.3434 300.536 63.4314 286.5 77Z" fill="url(#paint0_linear_33_26)"/>
    <path d="M31 94C39.5204 94 56.5 81.8333 51.5 77C37.4635 63.4314 35.8666 41.3433 34.7312 25.639C34.6798 24.9278 34.6293 24.2297 34.5786 23.5461C34.5488 24.4674 34.0728 25.5 31.5 25.5C26.9978 25.5 27.0384 22.977 27.0831 20.2028C27.0948 19.4721 27.1069 18.724 27.0363 18L25.2082 90.1785C25.2307 90.2818 25.2255 90.3893 25.2 90.5C25.1311 90.7991 24.9138 91.1211 24.6956 91.4444C23.8397 92.7126 22.971 94 31 94Z" fill="url(#paint1_linear_33_26)"/>
    <defs>
        <linearGradient id="paint0_linear_33_26" x1="169" y1="0.595093" x2="169" y2="103" gradientUnits="userSpaceOnUse">
            <stop stop-color="#CDCDCD"/>
            <stop offset="1" stop-color="#CDCDCD" stop-opacity="0"/>
        </linearGradient>
        <linearGradient id="paint1_linear_33_26" x1="38.2828" y1="18" x2="38.2828" y2="94" gradientUnits="userSpaceOnUse">
            <stop stop-color="#CDCDCD"/>
            <stop offset="1" stop-color="#CDCDCD" stop-opacity="0"/>
        </linearGradient>
    </defs>
</svg>
