<svg width="339" height="87" viewBox="0 0 339 87" fill="none" xmlns="http://www.w3.org/2000/svg">
    <path fill-rule="evenodd" clip-rule="evenodd" d="M49.5 8.50001C81.5 -3.13628 124.06 2.74434 172 3C221.651 3.26478 274.5 -5.2264 298.75 10.4576C305 14.4999 305 16.4999 304.581 19.29C304.548 19.4995 304.516 19.7021 304.5 19.9048C304.474 20.2496 304.448 20.5984 304.421 20.9511C304.371 21.6347 304.32 22.3328 304.269 23.0439C303.133 38.7482 301.536 60.8362 287.5 74.4048C286.511 70.2034 172 70 172 70C172 70 53.5114 70.1061 52.5 74.4048C38.4635 60.8362 36.8666 38.7481 35.7312 23.0439C35.6798 22.3326 35.6293 21.6345 35.5786 20.9509C35.5525 20.5983 35.5264 20.2495 35.5 19.9048C35.4845 19.7021 35.4521 19.4995 35.4185 19.2901C35 16.676 43.3913 10.7213 49.5 8.50001ZM28.0363 15.4048C27.7795 12.772 26.43 10.4576 20 10.4576C5.08833 10.4576 1 23.0439 1 23.0439V84.4999C1 84.4999 5.08833 77.8608 20 77.8608C24.7035 77.8608 26.0594 78.3582 26.2082 79.0393L26.2 79.3608C26.2255 79.2501 26.2307 79.1426 26.2082 79.0393L28.0363 15.4048ZM313.792 79.0393L311.964 15.4048C312.22 12.772 313.57 10.4576 320 10.4576C334.912 10.4576 338 23.0439 338 23.0439V84.4999C338 84.4999 334.912 77.8608 320 77.8608C315.297 77.8608 313.941 78.3582 313.792 79.0393ZM313.792 79.0393L313.8 79.3608C313.774 79.2501 313.769 79.1426 313.792 79.0393Z" fill="white"/>
    <path d="M287.5 74.4048C282.5 79.2381 299.48 82.8608 308 82.8608C318.075 82.8608 314.139 80.8336 313.8 79.3608C313.774 79.2501 313.769 79.1426 313.792 79.0393L311.964 15.4048C311.625 18.8778 313.188 22.9048 307.5 22.9048C304.927 22.9048 304.451 21.8724 304.421 20.9511C304.371 21.6347 304.32 22.3328 304.269 23.0439C303.133 38.7482 301.536 60.8362 287.5 74.4048Z" fill="#D9D9D9"/>
    <path d="M32 82.8608C40.5204 82.8608 57.5 79.2381 52.5 74.4048C38.4635 60.8362 36.8666 38.7481 35.7312 23.0439C35.6798 22.3326 35.6293 21.6345 35.5786 20.9509C35.5488 21.8722 35.0728 22.9048 32.5 22.9048C27.9978 22.9048 28.0384 20.3818 28.0831 17.6076C28.0948 16.8769 28.1069 16.1288 28.0363 15.4048L26.2082 79.0393C26.2307 79.1426 26.2255 79.2501 26.2 79.3608C26.1311 79.6599 25.9138 79.9819 25.6956 80.3051C24.8397 81.5734 23.971 82.8608 32 82.8608Z" fill="#D9D9D9"/>
    <path d="M287.5 74.4048C282.5 79.2381 299.48 82.8608 308 82.8608C318.075 82.8608 314.139 80.8336 313.8 79.3608C313.774 79.2501 313.769 79.1426 313.792 79.0393L311.964 15.4048C311.625 18.8778 313.188 22.9048 307.5 22.9048C304.927 22.9048 304.451 21.8724 304.421 20.9511C304.371 21.6347 304.32 22.3328 304.269 23.0439C303.133 38.7482 301.536 60.8362 287.5 74.4048Z" fill="#D9D9D9"/>
    <path d="M287.5 74.4048C282.5 79.2381 299.48 82.8608 308 82.8608C318.075 82.8608 314.139 80.8336 313.8 79.3608C313.774 79.2501 313.769 79.1426 313.792 79.0393L311.964 15.4048C311.625 18.8778 313.188 22.9048 307.5 22.9048C304.927 22.9048 304.451 21.8724 304.421 20.9511C304.371 21.6347 304.32 22.3328 304.269 23.0439C303.133 38.7482 301.536 60.8362 287.5 74.4048Z" fill="url(#paint0_linear_34_27)"/>
    <path d="M32 82.8608C40.5204 82.8608 57.5 79.2381 52.5 74.4048C38.4635 60.8362 36.8666 38.7481 35.7312 23.0439C35.6798 22.3326 35.6293 21.6345 35.5786 20.9509C35.5488 21.8722 35.0728 22.9048 32.5 22.9048C27.9978 22.9048 28.0384 20.3818 28.0831 17.6076C28.0948 16.8769 28.1069 16.1288 28.0363 15.4048L26.2082 79.0393C26.2307 79.1426 26.2255 79.2501 26.2 79.3608C26.1311 79.6599 25.9138 79.9819 25.6956 80.3051C24.8397 81.5734 23.971 82.8608 32 82.8608Z" fill="url(#paint1_linear_34_27)"/>
    <path d="M49.5 8.50001L49.3291 8.03011L49.5 8.50001ZM298.75 10.4576L298.478 10.8775L298.75 10.4576ZM1 23.0439L0.524458 22.8895L0.5 22.9648V23.0439H1ZM1 84.4999H0.5V86.2654L1.42575 84.7621L1 84.4999ZM35.5 19.9048L35.9985 19.8667L35.9985 19.8667L35.5 19.9048ZM52.5 74.4048L52.1525 74.7643L52.1525 74.7643L52.5 74.4048ZM304.5 19.9048L304.001 19.8667L304.001 19.8667L304.5 19.9048ZM26.2 79.3608L26.6873 79.4731L26.6873 79.4731L26.2 79.3608ZM28.0363 15.4048L28.5339 15.3563L28.5339 15.3563L28.0363 15.4048ZM338 23.0439H338.5V22.9835L338.486 22.9248L338 23.0439ZM338 84.4999L337.547 84.7108L338.5 84.4999H338ZM311.964 15.4048L311.466 15.3563L311.964 15.4048ZM35.4185 19.2901L34.9248 19.3691L35.4185 19.2901ZM28.0831 17.6076L28.583 17.6156L28.583 17.6156L28.0831 17.6076ZM25.6956 80.3051L26.1101 80.5848L26.1101 80.5848L25.6956 80.3051ZM304.269 23.0439L303.77 23.0079L303.77 23.0079L304.269 23.0439ZM304.581 19.29L305.075 19.3691L305.076 19.3642L304.581 19.29ZM35.7312 23.0439L35.2325 23.0799L35.2325 23.0799L35.7312 23.0439ZM172 3L171.997 3.49999L172 3ZM172 70L172.001 69.5L172 69.5L172 70ZM20 9.95764C12.3831 9.95764 7.50524 13.1795 4.53965 16.4128C3.06099 18.025 2.0603 19.6364 1.4286 20.8459C1.11254 21.451 0.88818 21.9568 0.742079 22.3137C0.669011 22.4921 0.615462 22.6334 0.57976 22.7314C0.561908 22.7804 0.548512 22.8186 0.539366 22.8452C0.534793 22.8585 0.531281 22.8689 0.528806 22.8763C0.527568 22.88 0.526589 22.883 0.525865 22.8852C0.525503 22.8863 0.525206 22.8872 0.524971 22.8879C0.524854 22.8883 0.524726 22.8887 0.524667 22.8888C0.524555 22.8892 0.524458 22.8895 1 23.0439C1.47554 23.1984 1.47548 23.1986 1.47543 23.1988C1.47543 23.1988 1.4754 23.1989 1.4754 23.1988C1.47542 23.1988 1.4755 23.1985 1.47564 23.1981C1.47592 23.1973 1.47645 23.1957 1.47723 23.1933C1.4788 23.1886 1.48138 23.181 1.485 23.1705C1.49223 23.1494 1.50362 23.1169 1.51935 23.0737C1.55082 22.9874 1.59966 22.8583 1.66751 22.6926C1.80324 22.3611 2.01478 21.8836 2.31499 21.3088C2.91584 20.1584 3.86922 18.6232 5.2766 17.0888C8.0831 14.0289 12.7052 10.9576 20 10.9576V9.95764ZM0.5 23.0439V84.4999H1.5V23.0439H0.5ZM1 84.4999C1.42575 84.7621 1.42556 84.7624 1.42538 84.7627C1.42534 84.7627 1.42518 84.763 1.4251 84.7631C1.42495 84.7634 1.42485 84.7635 1.42482 84.7636C1.42476 84.7637 1.42494 84.7634 1.42537 84.7627C1.42624 84.7613 1.42812 84.7584 1.43102 84.7539C1.43682 84.745 1.44674 84.7301 1.46097 84.7095C1.48943 84.6683 1.53516 84.6044 1.59977 84.5212C1.72898 84.3547 1.93375 84.1106 2.2271 83.8143C2.8135 83.2221 3.7552 82.4202 5.15739 81.6138C7.95883 80.0026 12.621 78.3608 20 78.3608V77.3608C12.4674 77.3608 7.6295 79.0385 4.65885 80.7469C3.17501 81.6003 2.16265 82.4581 1.51649 83.1107C1.19356 83.4369 0.962438 83.7114 0.809822 83.908C0.733518 84.0063 0.676847 84.0851 0.638142 84.1412C0.618789 84.1692 0.603927 84.1915 0.593348 84.2077C0.588059 84.2159 0.58384 84.2224 0.580665 84.2275C0.579078 84.23 0.577752 84.2321 0.576683 84.2338C0.576149 84.2346 0.57568 84.2354 0.575274 84.236C0.575071 84.2364 0.574814 84.2368 0.574713 84.2369C0.574473 84.2373 0.574249 84.2377 1 84.4999ZM32 83.3608C36.3095 83.3608 42.7365 82.4478 47.4735 80.9212C49.8251 80.1633 51.8454 79.2284 52.9575 78.1191C53.5215 77.5565 53.901 76.8995 53.9042 76.158C53.9074 75.4131 53.5307 74.7057 52.8475 74.0453L52.1525 74.7643C52.7193 75.3122 52.9058 75.7753 52.9042 76.1537C52.9025 76.5354 52.7092 76.9544 52.2513 77.4111C51.3197 78.3404 49.5001 79.2174 47.1668 79.9694C42.5339 81.4624 36.2108 82.3608 32 82.3608V83.3608ZM308 82.3608C303.789 82.3608 297.466 81.4624 292.833 79.9694C290.5 79.2174 288.68 78.3404 287.749 77.4111C287.291 76.9544 287.097 76.5354 287.096 76.1537C287.094 75.7753 287.281 75.3122 287.848 74.7643L287.152 74.0453C286.469 74.7057 286.093 75.4131 286.096 76.158C286.099 76.8995 286.478 77.5565 287.042 78.1191C288.155 79.2284 290.175 80.1633 292.526 80.9212C297.264 82.4478 303.69 83.3608 308 83.3608V82.3608ZM28.5339 15.3563C28.3986 13.9689 27.9645 12.5739 26.6391 11.5485C25.3369 10.541 23.2587 9.95764 20 9.95764V10.9576C23.1713 10.9576 24.9828 11.5314 26.0271 12.3394C27.0481 13.1293 27.4172 14.2079 27.5386 15.4533L28.5339 15.3563ZM320 10.9576C327.292 10.9576 331.657 14.0257 334.209 17.0719C335.49 18.6014 336.319 20.1322 336.827 21.2798C337.081 21.8531 337.254 22.3293 337.363 22.6598C337.418 22.825 337.456 22.9536 337.481 23.0396C337.493 23.0825 337.502 23.1148 337.507 23.1357C337.51 23.1461 337.512 23.1537 337.513 23.1583C337.514 23.1606 337.514 23.1621 337.514 23.1629C337.514 23.1633 337.515 23.1636 337.515 23.1636C337.515 23.1636 337.514 23.1635 337.514 23.1635C337.514 23.1633 337.514 23.1631 338 23.0439C338.486 22.9248 338.486 22.9245 338.485 22.9241C338.485 22.9239 338.485 22.9235 338.485 22.9232C338.485 22.9224 338.485 22.9215 338.484 22.9204C338.484 22.9181 338.483 22.9151 338.482 22.9114C338.48 22.9039 338.478 22.8934 338.474 22.88C338.467 22.8532 338.457 22.8148 338.443 22.7656C338.415 22.6672 338.372 22.5254 338.313 22.3464C338.195 21.9886 338.01 21.4815 337.742 20.8749C337.205 19.6626 336.33 18.0467 334.975 16.4297C332.255 13.1827 327.62 9.95764 320 9.95764V10.9576ZM337.5 23.0439V84.4999H338.5V23.0439H337.5ZM338 84.4999C338.453 84.289 338.453 84.2886 338.453 84.2881C338.453 84.2879 338.453 84.2874 338.452 84.2871C338.452 84.2863 338.452 84.2855 338.451 84.2845C338.45 84.2826 338.449 84.2803 338.448 84.2776C338.445 84.2722 338.442 84.2652 338.438 84.2567C338.429 84.2397 338.417 84.2166 338.402 84.1877C338.37 84.13 338.325 84.0495 338.262 83.9494C338.137 83.7492 337.944 83.471 337.667 83.141C337.113 82.4806 336.222 81.6159 334.858 80.7572C332.128 79.0381 327.531 77.3608 320 77.3608V78.3608C327.38 78.3608 331.784 80.003 334.325 81.6034C335.598 82.4045 336.411 83.1996 336.902 83.784C337.147 84.0765 337.312 84.3169 337.414 84.4798C337.465 84.5612 337.5 84.6233 337.522 84.6629C337.532 84.6827 337.54 84.6968 337.544 84.7049C337.546 84.709 337.547 84.7115 337.547 84.7125C337.548 84.713 337.548 84.7131 337.548 84.7128C337.548 84.7127 337.547 84.7124 337.547 84.7121C337.547 84.7119 337.547 84.7116 337.547 84.7115C337.547 84.7111 337.547 84.7108 338 84.4999ZM313.313 79.4731C313.374 79.7382 313.507 79.987 313.635 80.1954C313.758 80.3961 313.923 80.6304 314.035 80.8023C314.162 80.996 314.252 81.1535 314.301 81.2879C314.35 81.4192 314.34 81.4785 314.332 81.5033C314.325 81.5238 314.292 81.6011 314.106 81.7066C313.915 81.8148 313.601 81.9297 313.104 82.0311C312.113 82.2338 310.511 82.3608 308 82.3608V83.3608C310.527 83.3608 312.211 83.2344 313.305 83.0109C313.851 82.8993 314.279 82.7579 314.599 82.5767C314.923 82.3929 315.17 82.1478 315.279 81.8228C315.387 81.5022 315.332 81.193 315.24 80.9429C315.149 80.6959 315.005 80.4591 314.872 80.2556C314.725 80.0304 314.605 79.8647 314.488 79.6726C314.375 79.4883 314.311 79.3515 314.287 79.2485L313.313 79.4731ZM307.5 23.4048C308.972 23.4048 310.051 23.1457 310.824 22.6395C311.612 22.1225 312.019 21.3887 312.223 20.5792C312.422 19.7883 312.433 18.8992 312.423 18.036C312.413 17.1505 312.38 16.2865 312.461 15.4533L311.466 15.3563C311.378 16.2596 311.414 17.2013 311.423 18.0476C311.433 18.9163 311.417 19.6851 311.253 20.3351C311.094 20.9665 310.804 21.4566 310.275 21.8032C309.73 22.1605 308.872 22.4048 307.5 22.4048V23.4048ZM312.461 15.4533C312.583 14.2079 312.952 13.1293 313.973 12.3394C315.017 11.5314 316.829 10.9576 320 10.9576V9.95764C316.741 9.95764 314.663 10.541 313.361 11.5485C312.035 12.5739 311.601 13.9689 311.466 15.3563L312.461 15.4533ZM304.001 19.8667C303.975 20.212 303.949 20.5613 303.923 20.9142L304.92 20.9881C304.946 20.6356 304.972 20.2872 304.999 19.9429L304.001 19.8667ZM303.922 20.9673C303.939 21.5085 304.093 22.1585 304.686 22.6563C305.26 23.1386 306.161 23.4048 307.5 23.4048V22.4048C306.266 22.4048 305.643 22.1548 305.329 21.8906C305.033 21.6419 304.933 21.315 304.921 20.9349L303.922 20.9673ZM320 77.3608C317.641 77.3608 316.081 77.4847 315.08 77.7065C314.58 77.8172 314.185 77.9594 313.893 78.1472C313.59 78.3416 313.376 78.6013 313.303 78.9326L314.28 79.146C314.282 79.1367 314.293 79.0788 314.434 78.9884C314.585 78.8914 314.85 78.7816 315.296 78.6828C316.186 78.4856 317.656 78.3608 320 78.3608V77.3608ZM313.292 79.0519L313.3 79.3734L314.3 79.3481L314.292 79.0267L313.292 79.0519ZM26.6999 79.3734L26.708 79.052L25.7083 79.0266L25.7002 79.3481L26.6999 79.3734ZM26.6967 78.9326C26.6243 78.6013 26.4096 78.3416 26.1072 78.1472C25.815 77.9594 25.4198 77.8172 24.9203 77.7065C23.9192 77.4847 22.3594 77.3608 20 77.3608V78.3608C22.3441 78.3608 23.8139 78.4856 24.7039 78.6828C25.1499 78.7816 25.4155 78.8914 25.5664 78.9884C25.7071 79.0788 25.7177 79.1367 25.7197 79.146L26.6967 78.9326ZM32.5 23.4048C33.8389 23.4048 34.7404 23.1386 35.3146 22.6562C35.9072 22.1583 36.0609 21.5083 36.0784 20.9671L35.0789 20.9347C35.0666 21.3148 34.9674 21.6418 34.6713 21.8905C34.3568 22.1548 33.7339 22.4048 32.5 22.4048V23.4048ZM36.0773 20.914C36.0511 20.5611 36.0249 20.2119 35.9985 19.8667L35.0015 19.9429C35.0278 20.2872 35.0539 20.6355 35.08 20.9878L36.0773 20.914ZM49.3291 8.03011C46.2212 9.16025 42.5537 11.2301 39.7128 13.3468C38.2925 14.4051 37.06 15.489 36.2035 16.4883C35.7756 16.9876 35.4292 17.4799 35.2025 17.9498C34.9783 18.4145 34.85 18.9016 34.9248 19.3691L35.9122 19.211C35.8824 19.0249 35.9247 18.7542 36.1032 18.3843C36.2792 18.0194 36.5675 17.6003 36.9628 17.1391C37.7528 16.2173 38.9215 15.1835 40.3103 14.1487C43.0876 12.0793 46.6701 10.0611 49.6709 8.96991L49.3291 8.03011ZM34.9248 19.3691C34.9589 19.5823 34.9878 19.7644 35.0015 19.9429L35.9985 19.8667C35.9812 19.6399 35.9452 19.4167 35.9122 19.211L34.9248 19.3691ZM32.5 22.4048C30.3358 22.4048 29.4434 21.8041 29.0228 21.0523C28.7966 20.6482 28.6759 20.1497 28.619 19.5578C28.5619 18.9642 28.5717 18.3156 28.583 17.6156L27.5831 17.5995C27.5721 18.2867 27.5601 18.9938 27.6235 19.6535C27.6871 20.3149 27.8292 20.9673 28.1501 21.5407C28.8236 22.7441 30.162 23.4048 32.5 23.4048V22.4048ZM28.583 17.6156C28.5947 16.8902 28.6077 16.1134 28.5339 15.3563L27.5386 15.4533C27.606 16.1443 27.595 16.8637 27.5831 17.5995L28.583 17.6156ZM25.7128 79.2485C25.6693 79.4373 25.5177 79.6749 25.2812 80.0254L26.1101 80.5848C26.3098 80.2889 26.5929 79.8824 26.6873 79.4731L25.7128 79.2485ZM25.2812 80.0254C25.0837 80.3181 24.8085 80.7146 24.7061 81.1158C24.6506 81.333 24.6359 81.5827 24.7257 81.8374C24.816 82.0934 24.9932 82.3013 25.2273 82.4668C25.6717 82.781 26.3929 82.993 27.44 83.1352C28.5064 83.2801 29.9829 83.3608 32 83.3608V82.3608C30.0026 82.3608 28.5768 82.2805 27.5746 82.1443C26.5532 82.0056 26.0397 81.8165 25.8046 81.6503C25.6991 81.5757 25.6753 81.5235 25.6688 81.5048C25.6617 81.4847 25.6541 81.445 25.675 81.3632C25.7253 81.1663 25.8797 80.9263 26.1101 80.5848L25.2812 80.0254ZM287.848 74.7643C294.958 67.8913 298.899 58.8782 301.207 49.6465C303.515 40.417 304.2 30.9266 304.768 23.08L303.77 23.0079C303.202 30.8655 302.521 40.2713 300.237 49.404C297.954 58.5345 294.079 67.3498 287.152 74.0453L287.848 74.7643ZM304.768 23.08C304.819 22.3688 304.869 21.6711 304.92 20.9881L303.923 20.9142C303.872 21.5983 303.822 22.2968 303.77 23.0079L304.768 23.08ZM304.999 19.9429C305.012 19.7644 305.041 19.5823 305.075 19.3691L304.088 19.211C304.055 19.4167 304.019 19.6399 304.001 19.8667L304.999 19.9429ZM305.076 19.3642C305.288 17.9532 305.418 16.6132 304.607 15.1064C303.815 13.6358 302.161 12.0684 299.022 10.0378L298.478 10.8775C301.589 12.8892 303.06 14.3429 303.726 15.5804C304.373 16.7817 304.294 17.8367 304.087 19.2159L305.076 19.3642ZM311.464 15.4192L313.292 79.0536L314.292 79.0249L312.464 15.3905L311.464 15.4192ZM313.303 78.9326C313.262 79.124 313.275 79.3081 313.313 79.4731L314.287 79.2484C314.274 79.1921 314.277 79.1612 314.28 79.1459L313.303 78.9326ZM35.0014 19.9424C35.0274 20.2878 35.0909 20.5638 35.0789 20.9347L36.0784 20.9671C36.0924 20.5354 36.0124 20.0509 35.9986 19.8672L35.0014 19.9424ZM26.708 79.0537L28.5361 15.4192L27.5365 15.3905L25.7084 79.0249L26.708 79.0537ZM25.7197 79.146C25.723 79.1611 25.7258 79.192 25.7128 79.2485L26.6873 79.4731C26.7252 79.3082 26.7385 79.1241 26.6967 78.9326L25.7197 79.146ZM304.001 19.8672C303.988 20.051 303.908 20.5355 303.922 20.9673L304.921 20.9349C304.909 20.5639 304.973 20.2878 304.999 19.9424L304.001 19.8672ZM52.8475 74.0453C45.9211 67.3497 42.0458 58.5345 39.7628 49.4039C37.4791 40.2712 36.798 30.8654 36.2299 23.0078L35.2325 23.0799C35.7998 30.9266 36.4848 40.417 38.7926 49.6465C41.101 58.8782 45.0425 67.8913 52.1525 74.7643L52.8475 74.0453ZM36.2299 23.0078C36.1785 22.2967 36.128 21.5981 36.0773 20.914L35.08 20.9878C35.1306 21.671 35.1811 22.3686 35.2325 23.0799L36.2299 23.0078ZM49.6709 8.96991C65.5854 3.18283 84.1528 1.74298 104.771 1.79052C115.077 1.81429 125.883 2.20933 137.116 2.61484C148.347 3.02026 160.003 3.43603 171.997 3.49999L172.003 2.50001C160.026 2.43614 148.385 2.02097 137.153 1.61549C125.923 1.21012 115.1 0.814337 104.773 0.790525C84.1269 0.742915 65.4146 2.18089 49.3291 8.03011L49.6709 8.96991ZM171.997 3.49999C184.423 3.56626 197.046 3.08469 209.362 2.57096C221.681 2.05704 233.689 1.51112 244.903 1.44659C256.117 1.38205 266.518 1.7993 275.621 3.20704C284.726 4.61528 292.499 7.00996 298.478 10.8775L299.022 10.0378C292.876 6.0633 284.949 3.63786 275.773 2.21879C266.595 0.799213 256.133 0.381946 244.897 0.446604C233.661 0.511264 221.632 1.05824 209.32 1.57182C197.004 2.08559 184.402 2.56613 172.003 2.50001L171.997 3.49999ZM52.9867 74.5193C52.9711 74.5856 52.9393 74.603 52.9673 74.5777C52.9939 74.5538 53.0507 74.5132 53.1545 74.4616C53.3621 74.3583 53.6843 74.2463 54.133 74.1312C55.025 73.9024 56.3245 73.6839 57.9868 73.4775C61.3059 73.0654 66.0034 72.7094 71.6258 72.4023C82.8672 71.7884 97.7659 71.3722 112.639 71.0903C127.51 70.8084 142.351 70.6608 153.474 70.5837C159.035 70.5452 163.667 70.5242 166.908 70.513C168.529 70.5073 169.802 70.5041 170.67 70.5022C171.104 70.5013 171.437 70.5008 171.661 70.5004C171.773 70.5003 171.858 70.5002 171.915 70.5001C171.943 70.5001 171.965 70.5 171.979 70.5C171.986 70.5 171.991 70.5 171.995 70.5C171.997 70.5 171.998 70.5 171.999 70.5C172 70.5 172 70.5 172 70C172 69.5 171.999 69.5 171.998 69.5C171.997 69.5 171.996 69.5 171.994 69.5C171.99 69.5 171.985 69.5 171.978 69.5C171.964 69.5 171.942 69.5001 171.914 69.5001C171.857 69.5002 171.771 69.5003 171.659 69.5004C171.435 69.5008 171.102 69.5013 170.668 69.5022C169.8 69.5041 168.526 69.5073 166.905 69.513C163.663 69.5243 159.03 69.5452 153.467 69.5838C142.342 69.6609 127.497 69.8085 112.62 70.0905C97.7441 70.3725 82.831 70.7888 71.5713 71.4038C65.9432 71.7112 61.2179 72.0687 57.8636 72.4851C56.1891 72.693 54.8392 72.9176 53.8845 73.1626C53.4097 73.2844 53.0092 73.417 52.7091 73.5663C52.5591 73.6409 52.4158 73.7286 52.2978 73.8349C52.1813 73.94 52.0605 74.0896 52.0133 74.2903L52.9867 74.5193ZM172 70C171.999 70.5 172 70.5 172 70.5C172.001 70.5 172.003 70.5 172.004 70.5C172.008 70.5 172.013 70.5 172.02 70.5C172.034 70.5001 172.054 70.5001 172.082 70.5002C172.137 70.5003 172.219 70.5005 172.327 70.5007C172.544 70.5012 172.865 70.5021 173.285 70.5033C174.123 70.5058 175.354 70.5101 176.92 70.5169C180.053 70.5307 184.529 70.5551 189.904 70.5974C200.654 70.6821 214.996 70.8388 229.369 71.1268C243.744 71.4148 258.143 71.8339 269.008 72.4433C274.442 72.7481 278.983 73.0999 282.191 73.5053C283.797 73.7084 285.053 73.9228 285.914 74.1469C286.347 74.2596 286.658 74.3689 286.857 74.4692C286.957 74.5193 287.01 74.5582 287.035 74.5806C287.061 74.6041 287.029 74.5857 287.013 74.5193L287.987 74.2903C287.94 74.0926 287.822 73.9449 287.708 73.841C287.592 73.7359 287.452 73.6493 287.306 73.5759C287.014 73.4289 286.626 73.2986 286.166 73.1791C285.241 72.9386 283.935 72.7178 282.316 72.5132C279.072 72.1033 274.504 71.75 269.064 71.4449C258.18 70.8345 243.766 70.415 229.389 70.127C215.011 69.8389 200.664 69.6822 189.912 69.5974C184.536 69.5551 180.058 69.5307 176.925 69.517C175.358 69.5101 174.127 69.5058 173.288 69.5033C172.868 69.5021 172.547 69.5012 172.33 69.5007C172.221 69.5005 172.139 69.5003 172.084 69.5002C172.056 69.5001 172.036 69.5001 172.022 69.5C172.015 69.5 172.01 69.5 172.006 69.5C172.004 69.5 172.003 69.5 172.002 69.5C172.001 69.5 172.001 69.5 172 70Z" fill="white"/>
    <defs>
        <linearGradient id="paint0_linear_34_27" x1="169.5" y1="0.940247" x2="169.5" y2="84.4999" gradientUnits="userSpaceOnUse">
            <stop stop-color="#CDCDCD"/>
            <stop offset="1" stop-color="#CDCDCD" stop-opacity="0"/>
        </linearGradient>
        <linearGradient id="paint1_linear_34_27" x1="39.2828" y1="15.4049" x2="39.2828" y2="91.4048" gradientUnits="userSpaceOnUse">
            <stop stop-color="#CDCDCD"/>
            <stop offset="1" stop-color="#CDCDCD" stop-opacity="0"/>
        </linearGradient>
    </defs>
</svg>
